# File created by Blade
# Date/Time:  Tue Sep 30 19:36:22 2014
#---------------------------------------------------------
:version 1.10
:name HOM
:units
  mass 1.0
  length 1.000000
  angle deg
:documentation
     Acclaim Skeleton File
:root
   axis xyz
   order TX TY TZ RX RY RZ
   position 0.000000 0.000000 0.000000
   orientation 0 0 0
:bonedata
   begin
      id 1
      name Spine_dum
      direction 0.000000 1.000000 0.000000
      length 3.241213
      axis 0.0 0.0 0.0 xyz
   end
   begin
      id 2
      name LeftUpLeg_dum
      direction 1.000000 0.000000 0.000000
      length 3.434019
      axis 0.0 0.0 0.0 xyz
   end
   begin
      id 3
      name RightUpLeg_dum
      direction -1.000000 0.000000 0.000000
      length 3.434019
      axis 0.0 0.0 0.0 xyz
   end
   begin
      id 4
      name Spine
      direction 0.000000 1.000000 0.000000
      length 0.000000
      axis 0.0 0.0 0.0 xyz
      dof rx ry rz
   end
   begin
      id 5
      name Spine_dum1
      direction 0.000000 1.000000 0.000000
      length 18.382958
      axis 0.0 0.0 0.0 xyz
   end
   begin
      id 6
      name Spine_dum2
      direction 0.000000 1.000000 0.000000
      length 12.828261
      axis 0.0 0.0 0.0 xyz
   end
   begin
      id 7
      name Spine_dum3
      direction 0.000000 1.000000 0.000000
      length 12.828261
      axis 0.0 0.0 0.0 xyz
   end
   begin
      id 8
      name Head
      direction 0.000000 1.000000 0.000000
      length 4.527550
      axis 0.0 0.0 0.0 xyz
      dof rx ry rz
   end
   begin
      id 9
      name LeftShoulder
      direction 1.000000 0.000000 0.000000
      length 7.748055
      axis 0.0 0.0 -90.0 xyz
      dof rx ry rz
   end
   begin
      id 10
      name LeftArm
      direction 1.000000 0.000000 0.000000
      length 10.635614
      axis 0.0 0.0 -90.0 xyz
      dof rx ry rz
   end
   begin
      id 11
      name LeftForeArm
      direction 1.000000 0.000000 0.000000
      length 8.346755
      axis 0.0 0.0 -90.0 xyz
      dof ry rz rx
   end
   begin
      id 12
      name LeftHand
      direction 0.000000 0.000000 0.000000
      length 0.000000
      axis 0.0 0.0 -90.0 xyz
      dof rx ry rz
   end
   begin
      id 13
      name LeftHand_dum1
      direction 0.000000 0.000000 0.000000
      length 0.000000
      axis 0.0 0.0 -90.0 xyz
   end
   begin
      id 14
      name LeftHand_dum2
      direction 1.000000 0.000000 0.000000
      length 3.937000
      axis 0.0 0.0 -90.0 xyz
   end
   begin
      id 15
      name LeftHandThumb1
      direction 0.000000 0.000000 1.000000
      length 3.937000
      axis 0.0 0.0 -90.0 xyz
      dof rx rz ry
   end
   begin
      id 16
      name RightShoulder
      direction -1.000000 0.000000 0.000000
      length 7.748055
      axis 0.0 0.0 90.0 xyz
      dof rx ry rz
   end
   begin
      id 17
      name RightArm
      direction -1.000000 0.000000 0.000000
      length 10.635614
      axis 0.0 0.0 90.0 xyz
      dof rx ry rz
   end
   begin
      id 18
      name RightForeArm
      direction -1.000000 0.000000 0.000000
      length 8.346755
      axis 0.0 0.0 90.0 xyz
      dof ry rz rx
   end
   begin
      id 19
      name RightHand
      direction 0.000000 0.000000 0.000000
      length 0.000000
      axis 0.0 0.0 90.0 xyz
      dof rx ry rz
   end
   begin
      id 20
      name RightHand_dum1
      direction 0.000000 0.000000 0.000000
      length 0.000000
      axis 0.0 0.0 90.0 xyz
   end
   begin
      id 21
      name RightHand_dum2
      direction -1.000000 0.000000 0.000000
      length 3.937000
      axis 0.0 0.0 90.0 xyz
   end
   begin
      id 22
      name RightHandThumb1
      direction 0.000000 0.000000 1.000000
      length 3.937000
      axis 0.0 0.0 90.0 xyz
      dof rx rz ry
   end
   begin
      id 23
      name LeftUpLeg
      direction 0.000000 -1.000000 0.000000
      length 15.713025
      axis 0.0 0.0 0.0 xyz
      dof rx ry rz
   end
   begin
      id 24
      name LeftLeg
      direction 0.000000 -1.000000 0.000000
      length 14.435119
      axis 0.0 0.0 0.0 xyz
      dof rx ry rz
   end
   begin
      id 25
      name LeftFoot
      direction 0.000000 -0.258819 0.965926
      length 4.938895
      axis 15.0 0.0 0.0 xyz
      dof rx ry rz
   end
   begin
      id 26
      name LeftToeBase
      direction 0.000000 0.000000 1.000000
      length 2.952750
      axis 0.0 0.0 0.0 xyz
      dof rx ry rz
   end
   begin
      id 27
      name RightUpLeg
      direction 0.000000 -1.000000 0.000000
      length 15.713025
      axis 0.0 0.0 0.0 xyz
      dof rx ry rz
   end
   begin
      id 28
      name RightLeg
      direction 0.000000 -1.000000 0.000000
      length 14.435119
      axis 0.0 0.0 0.0 xyz
      dof rx ry rz
   end
   begin
      id 29
      name RightFoot
      direction 0.000000 -0.258819 0.965926
      length 4.938895
      axis 15.0 0.0 0.0 xyz
      dof rx ry rz
   end
   begin
      id 30
      name RightToeBase
      direction 0.000000 0.000000 1.000000
      length 2.952750
      axis 0.0 0.0 0.0 xyz
      dof rx ry rz
   end
:hierarchy
   begin
      root Spine_dum LeftUpLeg_dum RightUpLeg_dum
      Spine_dum Spine
      LeftUpLeg_dum LeftUpLeg
      RightUpLeg_dum RightUpLeg
      Spine Spine_dum1 Spine_dum2 Spine_dum3
      Spine_dum1 Head
      Spine_dum2 LeftShoulder
      Spine_dum3 RightShoulder
      LeftShoulder LeftArm
      LeftArm LeftForeArm
      LeftForeArm LeftHand
      LeftHand LeftHand_dum1 LeftHand_dum2
      LeftHand_dum1 LeftHandThumb1
      RightShoulder RightArm
      RightArm RightForeArm
      RightForeArm RightHand
      RightHand RightHand_dum1 RightHand_dum2
      RightHand_dum1 RightHandThumb1
      LeftUpLeg LeftLeg
      LeftLeg LeftFoot
      LeftFoot LeftToeBase
      RightUpLeg RightLeg
      RightLeg RightFoot
      RightFoot RightToeBase
   end

# File created by Blade
# Date/Time:  Tue Sep 23 19:18:47 2014
# Frame Rate: 120.000 fps
#------------------------------------------------------
:FULLY-SPECIFIED
:DEGREES
281
root 1.203244 34.270723 1.705198 80.171929 31.166946 -31.546663
Spine -62.059976 -5.982094 38.742205
Head -15.316089 0.900075 36.705295
LeftShoulder -9.579910 35.149783 32.927301
LeftArm 76.843150 -23.213934 -82.381033
LeftForeArm 5.993142 0.000000 125.396183
LeftHand -58.461649 -0.000000 8.035795
LeftHandThumb1 -26.253704 0.000000 33.147579
RightShoulder -35.333317 -42.686635 2.376431
RightArm 47.212992 55.300862 88.793888
RightForeArm 89.811931 -0.000000 7.791229
RightHand 4.603603 0.000000 27.169998
RightHandThumb1 -24.326973 -0.000000 -32.862282
LeftUpLeg -87.435949 25.403263 20.221079
LeftLeg 2.742512 -0.000000 -0.000000
LeftFoot -1.170168 -3.711098 6.323454
LeftToeBase 0.814514 -0.000000 -0.000000
RightUpLeg 3.506099 5.418416 -31.259823
RightLeg 75.208982 -0.000000 -0.000000
RightFoot 39.696653 4.917414 0.085677
RightToeBase 35.458789 -0.000000 -0.000000
282
root 1.180892 34.283599 1.684596 80.515869 31.209861 -31.775412
Spine -62.117589 -5.799867 38.857523
Head -15.409311 1.020438 36.930390
LeftShoulder -9.631799 35.180408 32.980990
LeftArm 77.197711 -23.429104 -82.665831
LeftForeArm 5.816453 0.000000 125.678589
LeftHand -58.406036 -0.000000 7.930468
LeftHandThumb1 -26.253704 0.000000 33.147579
RightShoulder -35.179077 -42.634275 2.040019
RightArm 46.949342 55.211965 87.904969
RightForeArm 90.100784 -0.000000 6.906126
RightHand 4.159618 -0.000000 27.311421
RightHandThumb1 -24.326973 -0.000000 -32.862282
LeftUpLeg -87.921164 25.778403 19.998586
LeftLeg 2.674939 -0.000000 -0.000000
LeftFoot -1.093752 -3.772163 6.263656
LeftToeBase 0.870289 -0.000000 -0.000000
RightUpLeg 3.776477 5.418341 -31.359168
RightLeg 74.466961 -0.000000 -0.000000
RightFoot 39.654310 4.965535 -0.058633
RightToeBase 35.520010 -0.000000 -0.000000
283
root 1.155703 34.294354 1.666917 80.847388 31.285134 -31.987671
Spine -62.170665 -5.619286 38.912670
Head -15.509846 1.099409 37.220322
LeftShoulder -9.599736 35.181037 33.133827
LeftArm 77.501614 -23.642838 -82.872848
LeftForeArm 5.621476 -0.000000 125.963429
LeftHand -58.247562 0.000000 7.966141
LeftHandThumb1 -26.253704 0.000000 33.147579
RightShoulder -35.140799 -42.591741 1.836445
RightArm 46.499455 55.050735 86.800216
RightForeArm 90.586417 -0.000000 6.093858
RightHand 3.657594 0.000000 27.388940
RightHandThumb1 -24.326973 -0.000000 -32.862282
LeftUpLeg -88.410816 26.134457 19.762098
LeftLeg 2.600125 -0.000000 -0.000000
LeftFoot -1.048910 -3.850631 6.146129
LeftToeBase 1.039903 -0.000000 -0.000000
RightUpLeg 4.079476 5.433373 -31.401543
RightLeg 73.750082 -0.000000 -0.000000
RightFoot 39.525667 4.988599 -0.092392
RightToeBase 35.541503 -0.000000 -0.000000
284
root 1.130341 34.306423 1.649265 81.162416 31.338419 -32.234259
Spine -62.201060 -5.410169 38.919432
Head -15.649084 1.151081 37.503700
LeftShoulder -9.583602 35.187486 33.270445
LeftArm 77.931519 -23.793752 -83.184914
LeftForeArm 5.437007 -0.000000 126.240762
LeftHand -58.206014 0.000000 7.632391
LeftHandThumb1 -26.253704 0.000000 33.147579
RightShoulder -35.127799 -42.570638 1.693593
RightArm 46.372441 55.023436 86.025832
RightForeArm 90.836493 -0.000000 5.142093
RightHand 3.302775 -0.000000 27.659383
RightHandThumb1 -24.326973 -0.000000 -32.862282
LeftUpLeg -88.906143 26.527105 19.480403
LeftLeg 2.528424 -0.000000 -0.000000
LeftFoot -1.052744 -3.945413 5.980511
LeftToeBase 1.275283 -0.000000 -0.000000
RightUpLeg 4.334758 5.489092 -31.442196
RightLeg 73.086025 -0.000000 -0.000000
RightFoot 39.373607 4.929664 -0.133799
RightToeBase 35.596700 -0.000000 -0.000000
285
root 1.106291 34.319001 1.630563 81.539860 31.408326 -32.502372
Spine -62.283349 -5.118066 38.919190
Head -15.784989 1.223732 37.766419
LeftShoulder -9.513495 35.162400 33.456195
LeftArm 78.318990 -23.983034 -83.426537
LeftForeArm 5.302723 -0.000000 126.516945
LeftHand -58.208793 -0.000000 7.589975
LeftHandThumb1 -26.253704 0.000000 33.147579
RightShoulder -35.259575 -42.514863 1.588441
RightArm 45.973320 54.712791 84.857373
RightForeArm 91.313967 0.000000 4.151023
RightHand 2.783957 -0.000000 27.887484
RightHandThumb1 -24.326973 -0.000000 -32.862282
LeftUpLeg -89.510267 26.959527 19.116013
LeftLeg 2.465452 -0.000000 -0.000000
LeftFoot -1.039642 -4.153973 5.802543
LeftToeBase 1.487081 -0.000000 -0.000000
RightUpLeg 4.484367 5.514820 -31.473178
RightLeg 72.459196 -0.000000 -0.000000
RightFoot 39.270965 4.853058 -0.174427
RightToeBase 35.591424 -0.000000 -0.000000
286
root 1.080991 34.325629 1.612241 81.859474 31.488989 -32.700079
Spine -62.332822 -4.944315 38.948355
Head -15.902973 1.303225 38.030650
LeftShoulder -9.465575 35.125996 33.622494
LeftArm 78.661797 -24.161347 -83.643643
LeftForeArm 5.443166 -0.000000 126.802821
LeftHand -58.168770 -0.000000 7.593223
LeftHandThumb1 -26.253704 0.000000 33.147579
RightShoulder -35.244288 -42.417394 1.373518
RightArm 45.655669 54.596664 83.939824
RightForeArm 91.542999 0.000000 3.252890
RightHand 2.392603 -0.000000 28.143120
RightHandThumb1 -24.326973 -0.000000 -32.862282
LeftUpLeg -90.026418 27.295224 18.816201
LeftLeg 2.405009 -0.000000 -0.000000
LeftFoot -1.129651 -4.306787 5.798515
LeftToeBase 1.970207 -0.000000 -0.000000
RightUpLeg 4.769362 5.521534 -31.495871
RightLeg 71.829744 -0.000000 -0.000000
RightFoot 39.102624 4.881636 -0.367251
RightToeBase 35.596592 -0.000000 -0.000000
287
root 1.058009 34.334767 1.591448 82.256694 31.534370 -32.933297
Spine -62.450382 -4.699108 38.973023
Head -15.961996 1.392712 38.285855
LeftShoulder -9.444861 35.072375 33.777082
LeftArm 79.041344 -24.348381 -83.853595
LeftForeArm 5.471355 -0.000000 127.032748
LeftHand -58.270959 -0.000000 7.676007
LeftHandThumb1 -26.253704 0.000000 33.147579
RightShoulder -35.165081 -42.311760 1.094978
RightArm 45.510462 54.615422 83.325258
RightForeArm 91.545058 -0.000000 2.447005
RightHand 2.059452 -0.000000 28.366978
RightHandThumb1 -24.326973 -0.000000 -32.862282
LeftUpLeg -90.620897 27.690719 18.495622
LeftLeg 2.356563 -0.000000 -0.000000
LeftFoot -1.127848 -4.437942 5.699398
LeftToeBase 2.083923 -0.000000 -0.000000
RightUpLeg 4.911592 5.513310 -31.560013
RightLeg 71.266381 -0.000000 -0.000000
RightFoot 38.984321 4.804615 -0.434891
RightToeBase 35.650752 -0.000000 -0.000000
